<?xml version="1.0" standalone="no"?>
<!DOCTYPE svg PUBLIC "-//W3C//DTD SVG 20010904//EN"
 "http://www.w3.org/TR/2001/REC-SVG-20010904/DTD/svg10.dtd">
<svg version="1.0" xmlns="http://www.w3.org/2000/svg"
 width="512.000000pt" height="512.000000pt" viewBox="0 0 512.000000 512.000000"
 preserveAspectRatio="xMidYMid meet">

<g transform="translate(0.000000,512.000000) scale(0.100000,-0.100000)"
fill="#000000" stroke="none">
<path d="M3504 4906 c-250 -48 -413 -166 -520 -378 -40 -79 -80 -213 -94 -312
-21 -142 -18 -135 -58 -152 -52 -21 -107 -78 -134 -138 -31 -71 -32 -215 -1
-299 38 -103 125 -196 202 -216 20 -6 38 -32 86 -127 78 -155 136 -236 262
-363 120 -121 123 -130 98 -264 -23 -120 -48 -179 -97 -222 -48 -44 -66 -51
-203 -80 -162 -34 -164 -35 -244 -73 -124 -60 -252 -196 -306 -324 l-15 -37
57 -37 c80 -51 190 -164 251 -257 79 -122 106 -204 175 -550 l63 -312 900 0
899 0 57 23 c79 32 160 108 198 185 53 109 51 135 -30 542 -45 228 -82 388
-101 435 -64 165 -206 302 -374 361 -32 11 -112 31 -179 45 -203 41 -249 84
-292 273 -17 75 -23 127 -19 150 5 27 32 61 114 146 59 60 129 140 155 177 49
70 146 251 146 274 0 7 29 27 64 43 122 59 195 177 204 330 8 150 -46 266
-146 312 l-48 22 -17 118 c-20 137 -63 277 -114 369 -54 98 -179 217 -276 263
-128 62 -207 78 -412 82 -125 3 -202 0 -251 -9z"/>
<path d="M1295 4348 c-420 -28 -664 -267 -731 -716 l-17 -118 -50 -24 c-148
-72 -193 -302 -97 -489 28 -55 107 -134 151 -150 56 -21 59 -23 93 -102 53
-123 155 -269 275 -393 82 -85 111 -121 116 -147 9 -49 -39 -253 -71 -302 -37
-57 -100 -92 -201 -112 -243 -48 -338 -90 -449 -200 -75 -75 -122 -148 -154
-240 -11 -31 -52 -217 -91 -413 -79 -395 -81 -428 -35 -528 33 -72 103 -144
173 -180 l58 -29 1110 -3 c1007 -3 1115 -1 1165 13 147 44 252 185 252 340 0
74 -117 686 -150 787 -60 181 -211 337 -386 399 -32 11 -112 31 -177 44 -213
44 -259 87 -299 281 -33 159 -28 178 67 261 113 98 253 293 310 433 26 64 31
70 79 89 173 72 265 333 180 515 -28 61 -86 121 -132 136 -19 7 -34 15 -34 18
0 4 -7 52 -15 107 -75 529 -377 761 -940 723z"/>
</g>
</svg>
